<mxfile host="app.diagrams.net" modified="2021-02-22T18:09:13.632Z" agent="5.0 (Windows NT 10.0; Win64; x64) AppleWebKit/537.36 (KHTML, like Gecko) Chrome/88.0.4324.182 Safari/537.36" etag="ExEQPGSo7dvc35Gug5_H" version="14.4.2" type="github">
  <diagram id="WGk2t7h1uBmlp54fiOrq" name="Page-1">
    <mxGraphModel dx="1422" dy="705" grid="1" gridSize="10" guides="1" tooltips="1" connect="1" arrows="1" fold="1" page="1" pageScale="1" pageWidth="583" pageHeight="827" math="0" shadow="0">
      <root>
        <mxCell id="0" />
        <mxCell id="1" parent="0" />
        <mxCell id="Qk4GCU8mQe3vDtIP3vfY-13" style="edgeStyle=orthogonalEdgeStyle;rounded=0;orthogonalLoop=1;jettySize=auto;html=1;exitX=0.5;exitY=1;exitDx=0;exitDy=0;entryX=0.5;entryY=0;entryDx=0;entryDy=0;" edge="1" parent="1" source="Qk4GCU8mQe3vDtIP3vfY-1" target="Qk4GCU8mQe3vDtIP3vfY-2">
          <mxGeometry relative="1" as="geometry" />
        </mxCell>
        <mxCell id="Qk4GCU8mQe3vDtIP3vfY-1" value="Начало" style="rounded=1;whiteSpace=wrap;html=1;arcSize=50;" vertex="1" parent="1">
          <mxGeometry x="232" y="20" width="120" height="20" as="geometry" />
        </mxCell>
        <mxCell id="Qk4GCU8mQe3vDtIP3vfY-14" style="edgeStyle=orthogonalEdgeStyle;rounded=0;orthogonalLoop=1;jettySize=auto;html=1;exitX=0.5;exitY=1;exitDx=0;exitDy=0;entryX=0.5;entryY=0;entryDx=0;entryDy=0;" edge="1" parent="1" source="Qk4GCU8mQe3vDtIP3vfY-2" target="Qk4GCU8mQe3vDtIP3vfY-3">
          <mxGeometry relative="1" as="geometry" />
        </mxCell>
        <mxCell id="Qk4GCU8mQe3vDtIP3vfY-2" value="Ввод элементов массива Q" style="shape=parallelogram;perimeter=parallelogramPerimeter;whiteSpace=wrap;html=1;fixedSize=1;rounded=0;" vertex="1" parent="1">
          <mxGeometry x="232" y="60" width="120" height="50" as="geometry" />
        </mxCell>
        <mxCell id="Qk4GCU8mQe3vDtIP3vfY-15" style="edgeStyle=orthogonalEdgeStyle;rounded=0;orthogonalLoop=1;jettySize=auto;html=1;exitX=0.5;exitY=1;exitDx=0;exitDy=0;entryX=0.5;entryY=0;entryDx=0;entryDy=0;" edge="1" parent="1" source="Qk4GCU8mQe3vDtIP3vfY-3" target="Qk4GCU8mQe3vDtIP3vfY-5">
          <mxGeometry relative="1" as="geometry" />
        </mxCell>
        <mxCell id="Qk4GCU8mQe3vDtIP3vfY-3" value="Ввод X" style="shape=parallelogram;perimeter=parallelogramPerimeter;whiteSpace=wrap;html=1;fixedSize=1;rounded=0;" vertex="1" parent="1">
          <mxGeometry x="232" y="130" width="120" height="40" as="geometry" />
        </mxCell>
        <mxCell id="Qk4GCU8mQe3vDtIP3vfY-16" style="edgeStyle=orthogonalEdgeStyle;rounded=0;orthogonalLoop=1;jettySize=auto;html=1;exitX=0.5;exitY=1;exitDx=0;exitDy=0;" edge="1" parent="1" source="Qk4GCU8mQe3vDtIP3vfY-5" target="Qk4GCU8mQe3vDtIP3vfY-6">
          <mxGeometry relative="1" as="geometry" />
        </mxCell>
        <mxCell id="Qk4GCU8mQe3vDtIP3vfY-5" value="Цикл для i,10" style="shape=trapezoid;perimeter=trapezoidPerimeter;whiteSpace=wrap;html=1;fixedSize=1;rounded=0;" vertex="1" parent="1">
          <mxGeometry x="232" y="190" width="120" height="60" as="geometry" />
        </mxCell>
        <mxCell id="Qk4GCU8mQe3vDtIP3vfY-17" style="edgeStyle=orthogonalEdgeStyle;rounded=0;orthogonalLoop=1;jettySize=auto;html=1;exitX=0;exitY=0.5;exitDx=0;exitDy=0;" edge="1" parent="1" source="Qk4GCU8mQe3vDtIP3vfY-6" target="Qk4GCU8mQe3vDtIP3vfY-7">
          <mxGeometry relative="1" as="geometry" />
        </mxCell>
        <mxCell id="Qk4GCU8mQe3vDtIP3vfY-18" style="edgeStyle=orthogonalEdgeStyle;rounded=0;orthogonalLoop=1;jettySize=auto;html=1;entryX=0.5;entryY=0;entryDx=0;entryDy=0;" edge="1" parent="1" source="Qk4GCU8mQe3vDtIP3vfY-6" target="Qk4GCU8mQe3vDtIP3vfY-8">
          <mxGeometry relative="1" as="geometry" />
        </mxCell>
        <mxCell id="Qk4GCU8mQe3vDtIP3vfY-6" value="Q[i] == X" style="rhombus;whiteSpace=wrap;html=1;rounded=0;" vertex="1" parent="1">
          <mxGeometry x="232" y="270" width="120" height="50" as="geometry" />
        </mxCell>
        <mxCell id="Qk4GCU8mQe3vDtIP3vfY-21" style="edgeStyle=orthogonalEdgeStyle;rounded=0;orthogonalLoop=1;jettySize=auto;html=1;" edge="1" parent="1" source="Qk4GCU8mQe3vDtIP3vfY-7">
          <mxGeometry relative="1" as="geometry">
            <mxPoint x="290" y="540" as="targetPoint" />
            <Array as="points">
              <mxPoint x="140" y="540" />
              <mxPoint x="290" y="540" />
            </Array>
          </mxGeometry>
        </mxCell>
        <mxCell id="Qk4GCU8mQe3vDtIP3vfY-7" value="z = Q[i]" style="rounded=0;whiteSpace=wrap;html=1;" vertex="1" parent="1">
          <mxGeometry x="80" y="282" width="120" height="26" as="geometry" />
        </mxCell>
        <mxCell id="Qk4GCU8mQe3vDtIP3vfY-24" style="edgeStyle=orthogonalEdgeStyle;rounded=0;orthogonalLoop=1;jettySize=auto;html=1;exitX=1;exitY=0.5;exitDx=0;exitDy=0;entryX=0.5;entryY=0;entryDx=0;entryDy=0;" edge="1" parent="1" source="Qk4GCU8mQe3vDtIP3vfY-8" target="Qk4GCU8mQe3vDtIP3vfY-11">
          <mxGeometry relative="1" as="geometry" />
        </mxCell>
        <mxCell id="Qk4GCU8mQe3vDtIP3vfY-25" style="edgeStyle=orthogonalEdgeStyle;rounded=0;orthogonalLoop=1;jettySize=auto;html=1;entryX=0.5;entryY=1;entryDx=0;entryDy=0;" edge="1" parent="1" source="Qk4GCU8mQe3vDtIP3vfY-8" target="Qk4GCU8mQe3vDtIP3vfY-10">
          <mxGeometry relative="1" as="geometry" />
        </mxCell>
        <mxCell id="Qk4GCU8mQe3vDtIP3vfY-8" value="(X - z) &amp;gt; (Q[i] - z)" style="rhombus;whiteSpace=wrap;html=1;rounded=0;" vertex="1" parent="1">
          <mxGeometry x="228" y="340" width="128" height="60" as="geometry" />
        </mxCell>
        <mxCell id="Qk4GCU8mQe3vDtIP3vfY-29" style="edgeStyle=orthogonalEdgeStyle;rounded=0;orthogonalLoop=1;jettySize=auto;html=1;entryX=0.5;entryY=0;entryDx=0;entryDy=0;" edge="1" parent="1" source="Qk4GCU8mQe3vDtIP3vfY-10" target="Qk4GCU8mQe3vDtIP3vfY-27">
          <mxGeometry relative="1" as="geometry" />
        </mxCell>
        <mxCell id="Qk4GCU8mQe3vDtIP3vfY-10" value="Конец цикла для i" style="shape=trapezoid;perimeter=trapezoidPerimeter;fixedSize=1;rounded=0;rotation=0;html=1;whiteSpace=wrap;direction=west;flipV=0;" vertex="1" parent="1">
          <mxGeometry x="222" y="460" width="140" height="60" as="geometry" />
        </mxCell>
        <mxCell id="Qk4GCU8mQe3vDtIP3vfY-26" style="edgeStyle=orthogonalEdgeStyle;rounded=0;orthogonalLoop=1;jettySize=auto;html=1;" edge="1" parent="1" source="Qk4GCU8mQe3vDtIP3vfY-11">
          <mxGeometry relative="1" as="geometry">
            <mxPoint x="290" y="427" as="targetPoint" />
          </mxGeometry>
        </mxCell>
        <mxCell id="Qk4GCU8mQe3vDtIP3vfY-11" value="z = Q[i]" style="rounded=0;whiteSpace=wrap;html=1;" vertex="1" parent="1">
          <mxGeometry x="370" y="414" width="102" height="26" as="geometry" />
        </mxCell>
        <mxCell id="Qk4GCU8mQe3vDtIP3vfY-30" style="edgeStyle=orthogonalEdgeStyle;rounded=0;orthogonalLoop=1;jettySize=auto;html=1;" edge="1" parent="1" source="Qk4GCU8mQe3vDtIP3vfY-27" target="Qk4GCU8mQe3vDtIP3vfY-28">
          <mxGeometry relative="1" as="geometry" />
        </mxCell>
        <mxCell id="Qk4GCU8mQe3vDtIP3vfY-27" value="Вывод z" style="shape=parallelogram;perimeter=parallelogramPerimeter;whiteSpace=wrap;html=1;fixedSize=1;rounded=0;" vertex="1" parent="1">
          <mxGeometry x="232" y="560" width="120" height="30" as="geometry" />
        </mxCell>
        <mxCell id="Qk4GCU8mQe3vDtIP3vfY-28" value="Конец" style="rounded=1;whiteSpace=wrap;html=1;arcSize=50;" vertex="1" parent="1">
          <mxGeometry x="232" y="620" width="120" height="20" as="geometry" />
        </mxCell>
        <mxCell id="Qk4GCU8mQe3vDtIP3vfY-31" value="Нет" style="text;html=1;strokeColor=none;fillColor=none;align=center;verticalAlign=middle;whiteSpace=wrap;rounded=0;" vertex="1" parent="1">
          <mxGeometry x="300" y="320" width="40" height="20" as="geometry" />
        </mxCell>
        <mxCell id="Qk4GCU8mQe3vDtIP3vfY-32" value="Да" style="text;html=1;strokeColor=none;fillColor=none;align=center;verticalAlign=middle;whiteSpace=wrap;rounded=0;" vertex="1" parent="1">
          <mxGeometry x="200" y="270" width="40" height="20" as="geometry" />
        </mxCell>
        <mxCell id="Qk4GCU8mQe3vDtIP3vfY-33" value="Нет" style="text;html=1;strokeColor=none;fillColor=none;align=center;verticalAlign=middle;whiteSpace=wrap;rounded=0;" vertex="1" parent="1">
          <mxGeometry x="252" y="414" width="40" height="20" as="geometry" />
        </mxCell>
        <mxCell id="Qk4GCU8mQe3vDtIP3vfY-34" value="Да" style="text;html=1;strokeColor=none;fillColor=none;align=center;verticalAlign=middle;whiteSpace=wrap;rounded=0;" vertex="1" parent="1">
          <mxGeometry x="370" y="350" width="40" height="20" as="geometry" />
        </mxCell>
      </root>
    </mxGraphModel>
  </diagram>
</mxfile>
